<svg xmlns="http://www.w3.org/2000/svg" width="26" height="32">
    <path fill="#FFF" fill-rule="evenodd" d="M7.882 25.508a1.196 1.196 0 0 1-1.203-1.181v-8.645c0-.649.541-1.182 1.203-1.182h10.236c.662 0 1.203.533 1.203 1.182v8.645c0 .649-.541 1.181-1.203 1.181H7.882zm9.032-8.645H9.086v6.282h7.828v-6.282zm7.883-10.351H5.623A1.196 1.196 0 0 1 4.419 5.33c0-.65.542-1.182 1.204-1.182h19.174c.661 0 1.203.532 1.203 1.182 0 .651-.542 1.182-1.203 1.182zm0 25.488a1.196 1.196 0 0 1-1.204-1.181V10.516H5.348a5.36 5.36 0 0 1-2.941-.874v17.094c0 1.588 1.317 2.887 2.941 2.887h14.421c.662 0 1.204.533 1.204 1.183 0 .649-.542 1.181-1.204 1.181H5.348C2.4 31.987 0 29.63 0 26.736V5.252C0 2.357 2.4 0 5.348 0h19.449C25.458 0 26 .538 26 1.188c0 .65-.542 1.182-1.203 1.182H5.348c-1.617 0-2.941 1.3-2.941 2.888 0 1.589 1.317 2.888 2.941 2.888h19.449c.661 0 1.203.532 1.203 1.182v21.491c0 .65-.542 1.181-1.203 1.181z"/>
</svg>
