<svg xmlns="http://www.w3.org/2000/svg" width="32" height="24">
    <path fill="#FFF" fill-rule="evenodd" d="M30.265.002H1.741C.779.002 0 .775 0 1.73v20.539C0 23.225.779 24 1.741 24h28.518c.962 0 1.741-.775 1.741-1.731V1.73c.006-.949-.779-1.728-1.735-1.728zm-.622 21.656H2.356V2.343h25.828L16.167 12.559 7.429 5.128a1.18 1.18 0 0 0-1.663.13 1.165 1.165 0 0 0 .131 1.653l9.504 8.082c.013.014.026.02.033.027.013.013.026.02.039.032.02.014.046.033.072.045.006.007.02.013.026.02.033.02.066.039.105.052.006.006.019.006.026.013.026.013.052.02.085.033.013.006.02.006.033.013l.078.02c.013 0 .026.007.033.007a.415.415 0 0 0 .085.012c.013 0 .02 0 .033.006.039.007.078.007.118.007.039 0 .078 0 .118-.007.013 0 .019 0 .032-.006.026-.006.059-.006.085-.012.013 0 .026-.007.033-.007l.079-.02c.013-.007.019-.007.032-.013a.466.466 0 0 0 .085-.033c.007-.007.02-.007.027-.013a.72.72 0 0 0 .104-.052c.007-.007.02-.013.026-.02.027-.012.046-.031.072-.045a.144.144 0 0 0 .04-.032.11.11 0 0 0 .032-.027L29.643 4.184v17.474z"/>
</svg>
