<svg xmlns="http://www.w3.org/2000/svg" width="32" height="32">
    <path fill="#FFF" fill-rule="evenodd" d="M23.408 0c-4.739 0-8.591 3.851-8.591 8.592v2.386c0 .651.532 1.183 1.183 1.183s1.183-.532 1.183-1.183V8.592a6.233 6.233 0 0 1 6.225-6.225 6.234 6.234 0 0 1 6.226 6.225 6.234 6.234 0 0 1-6.226 6.225H8.592C3.852 14.817 0 18.669 0 23.409 0 28.148 3.852 32 8.592 32c4.739 0 8.591-3.852 8.591-8.591v-2.361c0-.65-.532-1.183-1.183-1.183s-1.183.533-1.183 1.183v2.361a6.233 6.233 0 0 1-6.225 6.224 6.232 6.232 0 0 1-6.225-6.224 6.234 6.234 0 0 1 6.225-6.226h14.816c4.74 0 8.592-3.852 8.592-8.591C32 3.851 28.148 0 23.408 0z"/>
</svg>
