<svg xmlns="http://www.w3.org/2000/svg" width="26" height="32">
    <path fill="#FFF" fill-rule="evenodd" d="M25.772 15.443a4 4 0 0 1-.091.435c-.195.88-.488 1.739-.865 2.558-1.321 3.112-4.197 7.895-10.41 13.057a2.197 2.197 0 0 1-2.81 0c-6.214-5.155-9.089-9.945-10.41-13.057a13.018 13.018 0 0 1-.865-2.558 4.42 4.42 0 0 1-.092-.435 13.146 13.146 0 0 1-.169-3.71C.685 5.277 6.046.234 12.539.005c3.565-.117 6.935 1.172 9.492 3.645A12.906 12.906 0 0 1 26 13.003c0 .813-.078 1.639-.228 2.44zM20.405 5.329a10.575 10.575 0 0 0-7.788-2.987c-5.322.182-9.72 4.315-10.228 9.613a10.382 10.382 0 0 0 .163 3.072c0 .019.007.032.007.052.006.032.026.124.058.266v.014c.163.729.404 1.438.716 2.114 0 .008.006.02.013.033 1.21 2.857 3.864 7.276 9.661 12.113 5.797-4.843 8.452-9.256 9.662-12.113a10.636 10.636 0 0 0 .728-2.147v-.014c.033-.142.053-.234.059-.266 0-.02.006-.033.006-.052a10.51 10.51 0 0 0 .196-2.024c0-2.922-1.152-5.643-3.253-7.674zm-3.793 12.43a1.168 1.168 0 0 1-.13-1.653 4.562 4.562 0 0 0 1.099-2.973 4.587 4.587 0 0 0-4.58-4.582 4.587 4.587 0 0 0-4.58 4.582 4.587 4.587 0 0 0 4.58 4.581c.644 0 1.171.528 1.171 1.172 0 .644-.527 1.171-1.171 1.171-3.813 0-6.923-3.104-6.923-6.924 0-3.82 3.11-6.925 6.923-6.925 3.819 0 6.922 3.111 6.922 6.925a6.907 6.907 0 0 1-1.659 4.497 1.166 1.166 0 0 1-1.652.129z"/>
</svg>
