<svg xmlns="http://www.w3.org/2000/svg" width="33" height="30">
    <path fill="#FFF" fill-rule="evenodd" d="M30.893 23.816c1.476-1.515 1.476-3.973 0-5.481a3.706 3.706 0 0 0-5.341 0l-2.004 2.057a1.406 1.406 0 0 1-2.018 0l-3.578-3.678a1.158 1.158 0 0 0-.829-.356c-.313 0-.614.127-.829.356a5.085 5.085 0 0 1-3.67 1.561c-1.39 0-2.69-.556-3.669-1.561l-3.239-3.323 7.333-7.524 3.238 3.323a5.364 5.364 0 0 1 1.509 3.451c.039.642.555 1.139 1.175 1.139h.072c.646-.041 1.142-.611 1.103-1.274a7.794 7.794 0 0 0-2.194-5.017l-3.238-3.324.359-.369a1.237 1.237 0 0 0 0-1.709 1.161 1.161 0 0 0-1.665 0l-2.305 2.366L7.107.352a1.161 1.161 0 0 0-1.665 0 1.235 1.235 0 0 0 0 1.708l3.996 4.1-3.434 3.525-3.996-4.1a1.161 1.161 0 0 0-1.665 0 1.237 1.237 0 0 0 0 1.709l4.002 4.1-2.304 2.365a1.233 1.233 0 0 0 0 1.708c.228.235.528.355.829.355.3 0 .6-.12.829-.355l.359-.367 3.239 3.322c1.423 1.46 3.316 2.265 5.327 2.265a7.333 7.333 0 0 0 4.434-1.48l2.814 2.887a3.709 3.709 0 0 0 2.67 1.132 3.71 3.71 0 0 0 2.671-1.132l2.004-2.057a1.404 1.404 0 0 1 2.018 0 1.494 1.494 0 0 1 0 2.069l-2.005 2.058a3.902 3.902 0 0 0-1.103 2.741 3.9 3.9 0 0 0 1.103 2.74c.229.233.529.355.83.355.3 0 .6-.122.829-.355a1.235 1.235 0 0 0 0-1.708 1.474 1.474 0 0 1-.418-1.032c0-.389.15-.757.418-1.032l2.004-2.057z"/>
</svg>
