<svg xmlns="http://www.w3.org/2000/svg" width="29" height="32">
    <path fill="#FFF" fill-rule="evenodd" d="M21.509 32c-4.128 0-7.491-3.399-7.491-7.588 0-4.181 3.356-7.588 7.491-7.588.636 0 1.157.528 1.157 1.172v6.24l.386-.357a1.146 1.146 0 0 1 1.633.078 1.182 1.182 0 0 1-.077 1.654l-2.327 2.149a1.156 1.156 0 0 1-.779.307c-.276 0-.559-.105-.778-.307l-2.327-2.149a1.178 1.178 0 0 1-.078-1.654 1.14 1.14 0 0 1 1.634-.078l.386.357V19.299c-2.296.534-4.019 2.625-4.019 5.113 0 2.892 2.321 5.243 5.176 5.243s5.176-2.351 5.176-5.243c0-1.51-.643-2.944-1.762-3.94a1.186 1.186 0 0 1-.103-1.655 1.151 1.151 0 0 1 1.634-.105 7.707 7.707 0 0 1 2.559 5.7C29 28.594 25.637 32 21.509 32zm-2.546-16.707c-2.058.867-4.765 1.342-7.633 1.342-2.861 0-5.575-.475-7.633-1.342a10.154 10.154 0 0 1-1.376-.703v2.319c0 .579.843 1.322 2.154 1.895 1.704.742 4.006 1.172 6.495 1.211h.36c.637 0 1.157.529 1.157 1.173 0 .645-.52 1.173-1.157 1.173h-.399c-2.784-.046-5.401-.541-7.375-1.402a9.464 9.464 0 0 1-1.241-.643v2.325c0 .605.887 1.368 2.263 1.948 1.781.754 4.18 1.165 6.745 1.165.637 0 1.158.528 1.158 1.173s-.521 1.172-1.158 1.172c-2.861 0-5.574-.475-7.632-1.343C1.312 25.754 0 24.295 0 22.646V5.452c0-1.647 1.312-3.107 3.697-4.11C5.755.475 8.462 0 11.33 0c2.861 0 5.575.475 7.633 1.342 2.379 1.003 3.69 2.463 3.69 4.11v5.732c0 1.648-1.311 3.106-3.69 4.109zm1.369-6.422a9.983 9.983 0 0 1-1.376.703c-2.058.867-4.765 1.342-7.633 1.342-1.562 0-3.067-.142-4.481-.416a1.172 1.172 0 0 1-.92-1.375 1.157 1.157 0 0 1 1.357-.931 21.23 21.23 0 0 0 4.044.371c2.566 0 4.965-.417 6.746-1.166 1.376-.58 2.263-1.342 2.263-1.947 0-.606-.887-1.368-2.263-1.947-1.781-.755-4.18-1.166-6.746-1.166-2.565 0-4.964.416-6.745 1.166-1.376.579-2.263 1.347-2.263 1.947v5.732c0 .604.887 1.367 2.263 1.946 1.781.757 4.18 1.167 6.745 1.167 2.566 0 4.965-.417 6.746-1.167 1.376-.579 2.263-1.348 2.263-1.946V8.871z"/>
</svg>
